<svg width="244" height="56" viewBox="0 0 244 56" fill="none" xmlns="http://www.w3.org/2000/svg">
<path d="M38.8967 6.4985H23.1467C22.0617 6.4985 21.0467 7.12851 20.58 8.10851L0 50.5402H7.28002C7.42002 50.5402 7.54836 50.4585 7.60669 50.3302L11.83 41.1718H50.0967L54.32 50.3302C54.3783 50.4585 54.5067 50.5402 54.6467 50.5402H61.9967L41.475 8.10851C40.9967 7.12851 39.9934 6.4985 38.8967 6.4985ZM14.5133 35.3735L24.5117 13.6968C24.8267 13.0085 25.5267 12.5535 26.2967 12.5535H35.6417C36.4 12.5535 37.1 12.9968 37.4267 13.6968L47.425 35.3735H14.5133ZM172.037 6.4985H145.553C144.375 6.4985 143.407 7.45517 143.407 8.64517V50.3652C143.407 50.4585 143.488 50.5402 143.582 50.5402H150.185C150.278 50.5402 150.36 50.4585 150.36 50.3652V42.6302H172.025C180.74 42.6302 189.758 35.8752 189.758 24.5702C189.77 15.8785 182.992 6.4985 172.037 6.4985ZM171.395 36.7502H150.372V14.1052C150.372 13.2185 151.095 12.4952 151.982 12.4952H171.407C178.337 12.4952 182.63 18.7951 182.63 24.6285C182.618 30.4851 178.103 36.7502 171.395 36.7502ZM216.708 6.4985H197.773C196.595 6.4985 195.627 7.45517 195.627 8.64517V48.4052C195.627 49.5835 196.583 50.5518 197.773 50.5518H216.708C233.287 50.5518 243.588 42.1168 243.588 28.5252C243.588 14.9335 233.287 6.4985 216.708 6.4985ZM216.137 44.5435H204.202C203.315 44.5435 202.592 43.8202 202.592 42.9335V14.1052C202.592 13.2185 203.315 12.4952 204.202 12.4952H216.137C228.853 12.4952 236.437 18.4802 236.437 28.5135C236.437 38.5468 228.853 44.5435 216.137 44.5435ZM139.965 34.4052L133.957 32.5852C133.887 32.5852 133.817 32.6435 133.793 32.7135C131.215 40.7052 126.07 45.2785 119.665 45.2785C119.233 45.2785 118.802 45.2552 118.358 45.2202C113.423 44.7652 109.713 41.3352 108.687 36.2718L108.652 36.0968L108.768 35.9685C114.368 29.3885 119.98 20.5102 125.428 9.55517C125.463 9.49683 125.452 9.4385 125.44 9.41517C125.428 9.39184 125.405 9.34518 125.347 9.31018L119.677 6.5335C119.63 6.5335 119.56 6.55682 119.525 6.62682C115.302 15.1202 110.915 22.4935 107.182 27.3702L106.715 27.9885L106.552 27.2302C103.413 12.6352 97.0083 5.8335 86.415 5.8335C72.555 5.8335 64.995 16.4968 62.5333 26.4718C60.9233 32.9935 62.2534 40.0285 66.01 44.8118C69.3 49.0118 74.2234 51.2285 80.2667 51.2285C88.4917 51.2285 95.6784 48.0785 102.865 41.3352L103.238 40.9852L103.437 41.4635C105.957 47.5768 111.813 51.2402 119.117 51.2402C128.753 51.2402 136.792 44.8935 140.105 34.6618C140.128 34.6035 140.105 34.5452 140.093 34.5218C140.058 34.4752 140.023 34.4285 139.965 34.4052ZM100.975 33.9852C94.1734 41.3352 87.1967 45.0568 80.2433 45.0568C76.4283 45.0568 73.3017 43.6218 71.1783 40.9152C68.6233 37.6485 67.7483 32.7135 68.915 28.0352C71.855 16.1818 80.0334 11.9818 86.1467 11.9818C89.8567 11.9818 98.7233 14.0935 101.068 33.7052L101.092 33.8685L100.975 33.9852Z" fill="black"/>
</svg>
