<svg width="271" height="131" viewBox="0 0 271 131" fill="none" xmlns="http://www.w3.org/2000/svg">
<path d="M8.36211 53.0911C8.49033 53.0911 8.62233 53.0798 8.75432 53.061C9.11636 53.0046 15.7236 51.9255 21.5464 49.9102L18.3145 61.1974C17.9411 62.4946 18.6954 63.8481 20.0002 64.2204C20.2265 64.2843 20.4528 64.3144 20.6753 64.3144C21.7425 64.3144 22.7231 63.615 23.0323 62.5397L33.5277 25.907C33.6182 25.9182 33.7125 25.9258 33.8068 25.9258H56.3363C56.3174 26.0198 56.2948 26.1138 56.2759 26.2078C54.6958 33.6787 53.7643 40.0104 53.5116 45.0261C53.4927 45.3908 53.4777 45.748 53.4663 46.0976C50.9207 49.0304 48.0056 52.0044 44.5624 54.6401L50.5436 33.7576C50.8114 32.8289 50.6417 31.8702 50.0798 31.1295C49.5329 30.4076 48.6882 29.9902 47.7642 29.9902H37.8609C36.4353 29.9902 35.1116 31.0091 34.7081 32.4116L28.708 53.3467C28.4403 54.2754 28.61 55.2342 29.1719 55.9749C29.7187 56.6968 30.5635 57.1142 31.4875 57.1142H40.9797C40.9231 57.148 40.8703 57.1856 40.8138 57.2194C39.6635 57.9301 39.3053 59.434 40.018 60.5845C40.4819 61.3328 41.2852 61.7426 42.1073 61.7426C42.5486 61.7426 42.9936 61.626 43.3933 61.3779C47.4587 58.8738 50.8717 55.9448 53.8246 52.9369C54.2734 55.5764 55.1144 57.5465 56.3589 58.8813C57.5393 60.1484 59.6625 61.4944 63.0868 60.7011C63.2867 60.656 63.4828 60.5845 63.6638 60.4868C67.5822 58.4527 69.9241 54.1401 71.1988 50.8765C72.6545 47.1504 73.5143 42.8265 73.5634 39.0177C73.6124 34.8066 72.6545 32.1334 70.7123 31.0655C69.4225 30.3587 67.8726 30.4752 66.4546 31.3889C64.0108 32.9681 61.748 35.7692 58.9573 39.3223C59.4136 35.7654 60.1151 31.7273 61.0654 27.2455C61.1597 26.8018 61.254 26.3619 61.352 25.9182H71.8889C73.2428 25.9182 74.3402 24.8241 74.3402 23.4743C74.3402 22.1245 73.2428 21.0304 71.8889 21.0304H62.4721C64.8178 11.2396 67.3106 3.27234 67.3408 3.17835C67.7443 1.8887 67.0278 0.520096 65.7342 0.114026C64.4407 -0.288283 63.068 0.426098 62.6607 1.71574C62.6418 1.7759 61.6085 5.08086 60.2433 10.0439H51.7316L53.7152 3.11819C54.0886 1.82102 53.3344 0.467457 52.0295 0.0952268C50.7284 -0.277004 49.3708 0.474977 48.9974 1.7759L46.6517 9.96873C46.6441 9.99505 46.6404 10.0176 46.6328 10.0439H42.1903C42.7484 9.5965 43.1067 8.9122 43.1067 8.14142C43.1067 6.79161 42.0093 5.69748 40.6554 5.69748H36.0167C36.0167 5.69748 36.0092 5.69748 36.0054 5.69748H20.547C19.1932 5.69748 18.0957 6.79161 18.0957 8.14142C18.0957 9.49122 19.1932 10.5854 20.547 10.5854H22.0291L11.496 47.3497C11.4734 47.4249 11.4583 47.4963 11.4432 47.5715C9.4256 47.9964 8.02647 48.2257 7.97744 48.2333C6.64242 48.4476 5.72977 49.7034 5.94473 51.0344C6.13707 52.2376 7.17793 53.0911 8.36211 53.0911ZM39.1016 34.8781H45.1206L43.3367 41.1082H37.3178L39.1016 34.8781ZM34.1311 52.2263L35.9149 45.9961H41.9338L40.15 52.2263H34.1311ZM62.3552 42.928C64.6594 39.9953 66.6846 37.416 68.4231 36.0061C68.7701 37.5702 68.8342 40.8864 67.8952 44.9772C66.6582 50.3463 64.3502 54.4296 61.6801 56.0012C60.545 56.1892 60.1679 55.7831 59.9605 55.5576C59.4476 55.0086 58.3765 53.2226 58.3464 47.9249C59.7907 46.1992 61.1145 44.511 62.359 42.928H62.3552ZM23.7187 22.4704H29.4095L26.9657 30.9979H21.2749L23.7187 22.4704ZM51.5128 14.9356C50.2155 16.8306 48.179 19.4174 45.7994 21.0341H44.9735L45.294 14.9356H51.5128ZM36.6729 14.9168C36.7634 14.928 36.8577 14.9356 36.952 14.9356H40.3801L40.0595 21.0341H34.9193L36.6729 14.9168ZM52.9874 21.0341C55.3972 18.2706 56.9661 15.5108 57.2829 14.9356H58.9384C58.4406 16.8569 57.9315 18.9098 57.4337 21.0341H52.9874ZM32.8149 10.5891L30.8124 17.5825H25.1216L27.1241 10.5891H32.8149ZM19.8758 35.8857H25.5666L23.2548 43.9545C21.4182 44.8418 19.1441 45.6088 16.9115 46.2405L19.8758 35.8895V35.8857Z" fill="black"/>
<path d="M71.8701 17.2141C72.3151 18.0224 73.1561 18.4811 74.0197 18.4811C74.4194 18.4811 74.8267 18.3834 75.2001 18.1766C76.3843 17.5261 76.818 16.0372 76.1655 14.8566C75.0756 12.8827 75.0002 7.85191 75.2076 5.14478C75.3132 3.79873 74.3025 2.62188 72.9524 2.5166C71.5985 2.41133 70.4219 3.41898 70.3163 4.76503C70.3088 4.84774 70.1542 6.85929 70.2409 9.31827C70.3616 12.8225 70.9084 15.4807 71.8663 17.2141H71.8701Z" fill="black"/>
<path d="M96.0627 15.759C96.5416 16.4282 97.2959 16.7817 98.0577 16.7817C98.5517 16.7817 99.0495 16.635 99.4794 16.3267C100.581 15.5409 100.837 14.0144 100.049 12.9165C97.3072 9.09267 93.3964 3.89649 93.3549 3.84385C92.5403 2.76476 91.0054 2.54668 89.9231 3.35882C88.8407 4.17096 88.622 5.70124 89.4366 6.78033C89.4743 6.83297 93.3549 11.984 96.0589 15.759H96.0627Z" fill="black"/>
<path d="M90.4925 31.2009C90.9715 31.8702 91.7257 32.2236 92.4875 32.2236C92.9816 32.2236 93.4794 32.077 93.9093 31.7686C95.0105 30.9828 95.267 29.4563 94.4788 28.3584C91.7371 24.5346 87.8263 19.3384 87.7848 19.2858C86.9702 18.2067 85.4353 17.9886 84.3529 18.8007C83.2706 19.6129 83.0518 21.1432 83.8664 22.2223C83.9042 22.2749 87.7848 27.426 90.4888 31.2009H90.4925Z" fill="black"/>
<path d="M89.8741 35.2842C88.5956 34.8442 87.2002 35.5173 86.7552 36.7919C86.7137 36.9084 82.588 48.5002 72.2962 56.6404C71.2365 57.4789 71.0592 59.0167 71.9002 60.0732C72.383 60.6823 73.0995 60.9981 73.8236 60.9981C74.3591 60.9981 74.8946 60.8252 75.3472 60.468C86.7929 51.4104 91.2091 38.9125 91.3901 38.3861C91.8313 37.1115 91.1525 35.7241 89.8741 35.2804V35.2842Z" fill="black"/>
<path d="M87.6302 53.3956C85.5145 56.0163 83.7571 57.3097 83.7382 57.3209C82.6446 58.1105 82.3957 59.6333 83.1838 60.7274C83.6628 61.3929 84.4133 61.7463 85.1788 61.7463C85.6729 61.7463 86.1744 61.596 86.6081 61.2876C86.9476 61.0432 94.9577 55.1928 98.5593 42.6235C99.2268 40.2999 100.038 37.5175 100.916 34.551C101.101 34.5961 101.293 34.6224 101.49 34.6224H114.994L113.007 41.5594H101.844C100.49 41.5594 99.3927 42.6536 99.3927 44.0034C99.3927 45.3532 100.49 46.4473 101.844 46.4473H111.608L108.904 55.8884C108.881 55.9636 108.866 56.0388 108.851 56.114H93.9319C92.578 56.114 91.4806 57.2081 91.4806 58.5579C91.4806 59.9078 92.578 61.0019 93.9319 61.0019H129.204C130.558 61.0019 131.656 59.9078 131.656 58.5579C131.656 57.2081 130.558 56.114 129.204 56.114H113.938L116.707 46.4473H129.631C130.985 46.4473 132.082 45.3532 132.082 44.0034C132.082 42.6536 130.985 41.5594 129.631 41.5594H118.106L120.093 34.6224H134.1C135.453 34.6224 136.551 33.5283 136.551 32.1785C136.551 30.8287 135.453 29.7345 134.1 29.7345H121.492L123.574 22.4742H136.498C137.852 22.4742 138.949 21.38 138.949 20.0302C138.949 18.6804 137.852 17.5863 136.498 17.5863H124.973L126.376 12.6947C126.749 11.3975 125.995 10.0439 124.69 9.6717C123.389 9.29947 122.032 10.0514 121.658 11.3524L119.871 17.5863H108.708C107.354 17.5863 106.256 18.6804 106.256 20.0302C106.256 21.38 107.354 22.4742 108.708 22.4742H118.471L116.39 29.7345H102.342C104.846 21.3387 107.497 12.6157 108.598 8.99492H142.11C143.464 8.99492 144.561 7.90078 144.561 6.55098C144.561 5.20117 143.464 4.10704 142.11 4.10704H106.781C105.702 4.10704 104.748 4.81014 104.435 5.84036C104.363 6.07723 97.2167 29.5014 93.8376 41.285C92.216 46.9474 89.5648 51.0005 87.6226 53.4031L87.6302 53.3956Z" fill="black"/>
<path d="M146.413 18.3082C145.059 18.3082 143.961 19.4023 143.961 20.7521C143.961 22.1019 145.059 23.1961 146.413 23.1961H159.661C154.921 27.0387 149.034 31.1708 141.887 35.1413C140.703 35.7993 140.281 37.2882 140.937 38.465C141.386 39.2697 142.219 39.7208 143.083 39.7208C143.486 39.7208 143.897 39.6193 144.274 39.4125C146.993 37.9048 149.535 36.3745 151.907 34.848H162.048L156.139 38.9764C155.679 39.2997 155.343 39.7697 155.188 40.3074L154.317 43.3491C146.639 44.4846 139.278 45.3682 139.149 45.3833C137.807 45.5449 136.845 46.7594 137.007 48.1017C137.154 49.3424 138.214 50.2561 139.44 50.2561C139.538 50.2561 139.636 50.2486 139.734 50.2373C140.205 50.1809 146.119 49.474 152.843 48.5077L151.274 53.9822C150.885 55.3395 149.434 56.4073 148.521 56.3396L142.159 55.0725C140.831 54.8093 139.538 55.6666 139.274 56.9901C139.01 58.3136 139.87 59.6032 141.197 59.8664L147.665 61.156C147.718 61.1673 147.774 61.1749 147.831 61.1824C148.087 61.2162 148.347 61.2312 148.604 61.2312C151.809 61.2312 155.015 58.7271 155.988 55.3282L158.168 47.7144C162.976 46.9587 167.596 46.1277 170.413 45.3569C171.718 44.9997 172.487 43.6537 172.129 42.3528C171.771 41.0518 170.421 40.2848 169.116 40.642C166.913 41.2436 163.455 41.8978 159.654 42.522L159.665 42.4844L166.638 37.6153C167.894 36.7392 168.693 35.3556 168.776 33.9193C168.844 32.7349 168.399 31.6258 167.554 30.8776C166.887 30.2872 166.008 29.9601 165.08 29.9601H158.971C162.116 27.6215 164.869 25.3392 167.249 23.1998H175.063C173.456 25.7077 171.884 27.8471 170.496 29.1743C169.519 30.1105 169.489 31.6596 170.428 32.6297C170.911 33.1297 171.552 33.3779 172.197 33.3779C172.842 33.3779 173.422 33.1523 173.898 32.6936C175.014 31.622 176.209 30.1406 177.435 28.4148C177.382 30.118 177.36 31.9529 177.394 33.8554C177.454 37.3634 177.688 40.5443 178.091 43.3943C176.368 45.3156 174.682 46.9511 173.132 48.3197C166.208 54.4221 160.291 56.7457 160.178 56.7908C158.914 57.2721 158.281 58.682 158.76 59.9416C159.133 60.9192 160.065 61.5208 161.053 61.5208C161.343 61.5208 161.637 61.4681 161.924 61.3591C162.192 61.2576 168.603 58.7873 176.194 52.1473C177.186 51.2825 178.223 50.3125 179.294 49.2447C180.286 52.7715 181.663 55.5388 183.416 57.5202C185.634 60.0243 188.406 61.2952 191.66 61.2952C197.834 61.2952 203.89 56.1103 206.297 51.3878C208.695 46.6804 209.849 42.0407 209.894 41.8452C210.215 40.533 209.412 39.2133 208.095 38.8899C206.779 38.5666 205.456 39.3712 205.131 40.6796C204.098 44.8757 198.965 56.1704 191.657 56.4035C189.824 56.4637 188.372 55.7305 187.093 54.2829C185.23 52.1774 184.039 48.7747 183.307 44.8493C188.564 38.5628 193.934 29.8285 197.359 18.1164H203.208C204.562 18.1164 205.659 17.0223 205.659 15.6725C205.659 14.3227 204.562 13.2286 203.208 13.2286H186.271C188.76 8.35573 190.529 4.47551 190.699 4.09952C191.257 2.87004 190.71 1.42247 189.477 0.866007C188.244 0.309541 186.792 0.854727 186.233 2.08422C186.177 2.21205 182.643 9.96873 178.525 17.3607C178.472 17.4434 178.423 17.5299 178.378 17.6201C178.005 18.2856 177.627 18.9511 177.247 19.6054C176.835 18.8271 176.017 18.2969 175.074 18.2969H172.333C177.277 13.1834 179.581 9.62658 179.777 9.32203C180.501 8.18278 180.165 6.67506 179.023 5.95316C177.88 5.22749 176.368 5.56589 175.64 6.70138C175.617 6.73521 175.074 7.56991 173.958 8.99116C173.509 8.49861 172.864 8.18654 172.144 8.18654H165.752L167.064 3.59946C167.437 2.30229 166.683 0.948725 165.378 0.576494C164.077 0.204264 162.72 0.956244 162.346 2.25717L160.649 8.18654H151.289C149.935 8.18654 148.838 9.28067 148.838 10.6305C148.838 11.9803 149.935 13.0744 151.289 13.0744H159.25L157.753 18.2969H146.42L146.413 18.3082ZM192.23 18.1277C189.684 26.2641 186.15 32.7913 182.466 37.9349C181.995 30.8399 182.481 23.4893 182.96 19.4437C183.205 19.0038 183.446 18.5639 183.688 18.124H192.23V18.1277ZM164.341 13.0857H170.47C169.055 14.6348 167.332 16.3982 165.284 18.3082H162.844L164.341 13.0857Z" fill="black"/>
<path d="M206.96 35.8331C207.707 37.2769 209.14 38.1078 210.773 38.1078C211.101 38.1078 211.437 38.074 211.776 38.0063C211.795 38.0063 211.81 37.9988 211.829 37.995L214.269 37.4461L207.458 61.2237C207.085 62.5209 207.839 63.8745 209.144 64.2467C209.37 64.3106 209.596 64.3407 209.819 64.3407C210.886 64.3407 211.867 63.6413 212.176 62.566L219.726 36.2129L224.338 35.1714C227.038 34.7841 229.267 32.092 229.147 29.3134L228.935 24.4293C228.875 23.0795 227.729 22.0343 226.378 22.0944C225.025 22.1546 223.976 23.2938 224.036 24.6436L224.248 29.524C224.255 29.7646 223.878 30.2572 223.633 30.3324C223.542 30.3436 223.456 30.3587 223.369 30.3775L211.49 33.0583C211.58 32.8816 211.723 32.6785 211.942 32.4755L230.003 15.6913C230.994 14.7701 231.047 13.2248 230.123 12.236C229.199 11.2471 227.649 11.1945 226.658 12.1156L219.236 19.0113L218.127 17.3193C218.119 17.1614 218.225 16.6877 218.681 16.2365L228.294 6.62242C229.252 5.6674 229.248 4.11832 228.29 3.16707C227.333 2.21581 225.779 2.21581 224.825 3.17083L215.212 12.7849C213.141 14.8528 212.628 17.8645 213.986 19.9362L215.6 22.3952L208.601 28.8998C206.527 30.8287 205.855 33.6787 206.968 35.8331H206.96Z" fill="black"/>
<path d="M221.498 52.2864C222.547 52.2864 223.52 51.6999 223.84 50.79C225.338 46.5639 226.311 40.6007 226.352 40.3487C226.541 39.1907 225.605 38.1229 224.263 37.9612C222.924 37.7995 221.683 38.6079 221.495 39.7622C221.487 39.8224 220.533 45.6502 219.149 49.553C218.753 50.6697 219.481 51.854 220.778 52.1962C221.016 52.2601 221.257 52.2902 221.495 52.2902L221.498 52.2864Z" fill="black"/>
<path d="M235.245 12.4728H248.644L246.973 18.312H237.372C236.044 18.312 234.856 19.2181 234.487 20.519L229.018 39.608C228.769 40.4766 228.932 41.3752 229.46 42.0745C229.98 42.7626 230.78 43.1574 231.654 43.1574H238.066C235.607 46.3871 232.91 48.5905 230.768 50.0079C226.82 52.6173 222.404 54.1137 218.655 54.1137C217.301 54.1137 216.204 55.2079 216.204 56.5577C216.204 57.9075 217.301 59.0016 218.655 59.0016C223.343 59.0016 228.747 57.2081 233.476 54.0799C234.954 53.1023 236.35 52.012 237.658 50.8238L234.668 61.2576C234.294 62.5547 235.049 63.9083 236.353 64.2805C236.58 64.3444 236.806 64.3745 237.029 64.3745C238.096 64.3745 239.076 63.6752 239.386 62.5998L244.039 46.3608C244.473 47.1166 244.971 47.8873 245.548 48.6619C251.627 56.7645 261.41 58.464 268.549 58.464C269.903 58.464 271 57.3698 271 56.02C271 54.6702 269.903 53.5761 268.549 53.5761C255.632 53.5761 250.152 47.6655 247.848 43.1574H255.115C256.443 43.1574 257.631 42.2513 258 40.9503L263.469 21.8613C263.718 20.9928 263.556 20.0942 263.028 19.3948C262.507 18.7067 261.708 18.312 260.833 18.312H252.076L253.746 12.4728H268.549C269.903 12.4728 271 11.3787 271 10.0289C271 8.67908 269.903 7.58495 268.549 7.58495H255.149L256.288 3.61074C256.662 2.31357 255.907 0.960004 254.603 0.587774C253.301 0.215544 251.944 0.967524 251.57 2.26845L250.047 7.58495H235.245C233.891 7.58495 232.793 8.67908 232.793 10.0289C232.793 11.3787 233.891 12.4728 235.245 12.4728ZM238.816 23.1998H245.57L244.111 28.2907H237.357L238.816 23.1998ZM234.502 38.2658L235.961 33.1749H242.716L241.475 37.51C241.354 37.7657 241.233 38.0176 241.109 38.2658H234.502ZM253.667 38.2658H246.355L247.814 33.1749H255.127L253.667 38.2658ZM257.985 23.1998L256.526 28.2907H249.213L250.673 23.1998H257.985Z" fill="black"/>
<path d="M19.4647 90.9533C19.7475 90.8292 20.0266 90.7014 20.3057 90.566C24.967 88.3063 28.5346 84.5201 30.4617 79.8277C30.5522 81.0948 31.6119 82.0949 32.9054 82.0949H37.0991L35.3945 92.2429H26.4264C25.0725 92.2429 23.9751 93.3371 23.9751 94.6869C23.9751 96.0367 25.0725 97.1308 26.4264 97.1308H37.4687C37.4687 97.1308 37.4724 97.1308 37.4762 97.1308H63.1283C64.4822 97.1308 65.5796 96.0367 65.5796 94.6869C65.5796 93.3371 64.4822 92.2429 63.1283 92.2429H53.6738L59.8398 82.0949H65.2666C66.6205 82.0949 67.7179 81.0008 67.7179 79.651C67.7179 78.3012 66.6205 77.2071 65.2666 77.2071H52.335L54.3337 70.2362C54.7071 68.939 53.9528 67.5855 52.648 67.2132C51.3469 66.841 49.9892 67.593 49.6159 68.8939L47.4097 76.598C47.3531 76.801 47.323 77.0078 47.3192 77.2108H32.9017C32.1814 77.2108 31.5365 77.5229 31.0877 78.0117C31.4573 76.4664 31.2197 74.9737 30.4051 73.842C29.6358 72.7704 28.4177 72.1538 27.0675 72.1538H18.3107C16.9832 72.1538 15.7953 73.0599 15.4257 74.3608L13.0008 82.8244C11.9146 82.0874 10.8059 81.6137 9.7273 81.4708C8.37342 81.2941 7.11759 81.6287 6.09181 82.4371C5.149 83.1816 4.45886 84.2982 4.04402 85.7458C3.22943 88.5883 4.83976 91.1676 8.0491 92.1677C8.72038 92.3745 9.44069 92.5174 10.2025 92.5964L0.0955143 127.883C-0.27784 129.18 0.476411 130.534 1.78127 130.906C2.00754 130.97 2.23382 131 2.45632 131C3.52359 131 4.50411 130.301 4.81336 129.225L9.05602 114.419C13.2836 113.52 16.5269 111.772 18.7142 109.215C20.8035 106.767 21.8708 103.59 21.7991 100.022C21.7388 97.0406 20.8487 93.8446 19.4685 90.957L19.4647 90.9533ZM47.9452 92.2429H40.365L42.0696 82.0949H54.1112L47.9452 92.2429ZM8.75055 87.137C8.75055 87.137 8.75809 87.1069 8.76186 87.0881C8.88631 86.6482 9.02585 86.4113 9.10128 86.3136C9.4256 86.3436 10.2666 86.7234 11.364 87.7724C9.86684 87.731 8.99568 87.3626 8.75055 87.137ZM10.6362 108.896L15.1315 93.2092C15.9687 94.9989 16.5495 96.8789 16.7796 98.631C17.4433 103.696 15.3804 107.136 10.6362 108.896ZM16.9983 86.6896L19.7626 77.0416H26.2756C26.2756 77.0416 26.2756 77.0492 26.2756 77.0529C24.5333 82.1664 20.7582 85.2157 17.0021 86.6896H16.9983Z" fill="black"/>
<path d="M52.2595 102.12H31.6383C30.3108 102.12 29.1229 103.026 28.7533 104.327L23.0285 124.304C22.7796 125.172 22.9418 126.071 23.4698 126.77C23.9902 127.458 24.7897 127.853 25.6646 127.853H46.2859C47.6134 127.853 48.8013 126.947 49.1709 125.646L54.8956 105.67C55.1445 104.801 54.9824 103.902 54.4544 103.203C53.934 102.515 53.1345 102.12 52.2595 102.12ZM44.8415 122.965H28.5119L33.0827 107.012H49.4122L44.8415 122.965Z" fill="black"/>
<path d="M268.051 100.597C267.508 99.3604 266.063 98.7964 264.823 99.3341C256.748 102.85 246.581 103.65 232.82 101.857C224.904 100.827 216.464 99.0408 208.299 97.3113C190.687 93.5852 172.476 89.7313 156.704 92.6227C143.656 95.014 133.764 101.695 126.467 113.039C123.374 117.848 116.329 123.439 100.32 122.77C98.8119 122.706 97.6504 122.168 96.9527 121.205C96.1532 120.1 96.0061 118.472 96.5416 116.618L99.585 106.034H111.114C112.441 106.034 113.629 105.128 113.999 103.827L117.555 91.412C117.804 90.5434 117.642 89.6448 117.114 88.9455C116.593 88.2574 115.794 87.8626 114.919 87.8626H104.077C105.397 86.0692 106.792 84.0877 108.146 82.0235C108.327 82.0649 108.515 82.0912 108.708 82.0912H125.132C123.088 90.2991 119.358 100.082 117.182 105.497C116.307 107.674 114.036 109.035 112.592 108.794L110.133 108.388C108.794 108.166 107.535 109.068 107.312 110.399C107.09 111.73 107.995 112.99 109.33 113.212L111.789 113.618C112.166 113.682 112.551 113.712 112.935 113.712C116.51 113.712 120.218 111.088 121.734 107.316C124.747 99.8229 128.714 89.0959 130.517 80.5496C130.694 79.7112 130.494 78.8614 129.966 78.211C129.446 77.5718 128.665 77.2033 127.828 77.2033H111.125C112.437 74.9211 113.603 72.635 114.474 70.4693C114.979 69.2173 114.368 67.7923 113.109 67.2922C111.853 66.7884 110.424 67.3975 109.922 68.6533C106.75 76.5453 98.9741 86.6482 95.4781 90.9758L100.241 74.3495C100.49 73.481 100.328 72.5824 99.8 71.883C99.2796 71.195 98.4801 70.8002 97.6051 70.8002H81.8186C80.4912 70.8002 79.3032 71.7063 78.9336 73.0073L74.0951 89.8967C73.8462 90.7653 74.0084 91.6639 74.5364 92.3632C75.0568 93.0513 75.8563 93.4461 76.7312 93.4461H82.9802L75.5282 119.457C75.5093 119.525 75.4942 119.592 75.4829 119.656L71.8324 120.615L78.2473 98.2249C78.6206 96.9278 77.8664 95.5742 76.5615 95.202C75.2604 94.8297 73.9028 95.5817 73.5294 96.8826L66.4244 121.687C66.3904 121.811 66.3678 121.931 66.3527 122.055L62.3288 123.112C61.0202 123.458 60.2395 124.792 60.5827 126.097C60.8731 127.195 61.8649 127.921 62.951 127.921C63.1585 127.921 63.3697 127.894 63.5771 127.838L87.7508 121.484C89.0595 121.138 89.8401 119.803 89.4969 118.498C89.15 117.194 87.8112 116.412 86.5025 116.757L80.9852 118.209L84.5641 105.711H91.5372C92.8911 105.711 93.9885 104.617 93.9885 103.267C93.9885 101.917 92.8911 100.823 91.5372 100.823H85.9633L88.0789 93.4423H92.5177C92.9099 93.4423 93.287 93.3634 93.634 93.2167C92.8647 94.2394 93.0117 95.6983 94.0036 96.5405C94.4637 96.9315 95.0294 97.1233 95.595 97.1233C96.1607 97.1233 96.7566 96.9127 97.2167 96.5104L91.82 115.265C90.8621 118.592 91.2694 121.713 92.9665 124.059C94.5504 126.247 97.0847 127.522 100.105 127.646C101.033 127.684 101.942 127.703 102.84 127.703C115.941 127.703 125.505 123.567 130.585 115.667C137.109 105.523 145.941 99.5522 157.583 97.4203C172.397 94.7057 190.129 98.4543 207.273 102.083C215.532 103.831 224.07 105.636 232.179 106.692C246.86 108.606 257.853 107.689 266.78 103.801C268.021 103.259 268.586 101.819 268.047 100.582L268.051 100.597ZM91.0808 88.562H79.5861L83.2744 75.6956H94.7691L91.0808 88.562ZM109.669 101.15H100.992L103.405 92.758H112.075L109.669 101.15Z" fill="black"/>
<path d="M146.775 81.7265C146.816 82.2829 146.745 82.798 146.552 83.2718C146.364 83.7493 146.07 84.1629 145.674 84.5238C145.278 84.881 144.78 85.1743 144.18 85.3999C143.724 85.5578 143.279 85.6292 142.845 85.6105C142.411 85.5917 142.004 85.4789 141.627 85.2758C141.25 85.069 140.907 84.7607 140.605 84.3546C140.303 83.9448 140.043 83.4335 139.824 82.8206C139.477 81.7528 139.33 80.7677 139.387 79.8616C139.443 78.9554 139.7 78.1696 140.16 77.5003C140.62 76.8311 141.273 76.3385 142.117 76.0227C142.679 75.8121 143.211 75.7219 143.713 75.7557C144.214 75.7896 144.667 75.94 145.066 76.2069C145.466 76.4739 145.775 76.8386 145.994 77.3011L148.819 76.237C148.445 75.2895 147.88 74.5526 147.122 74.0224C146.364 73.4923 145.474 73.1877 144.455 73.1013C143.437 73.0185 142.355 73.1915 141.205 73.6239C140.179 74.0112 139.3 74.5451 138.569 75.2218C137.841 75.8986 137.286 76.6882 136.905 77.5831C136.524 78.4779 136.325 79.4555 136.306 80.5158C136.287 81.5761 136.472 82.674 136.86 83.8095C137.173 84.7494 137.603 85.5503 138.146 86.2083C138.689 86.8663 139.319 87.3776 140.036 87.7348C140.752 88.092 141.54 88.2762 142.404 88.2875C143.268 88.2988 144.188 88.1183 145.168 87.7498C146.258 87.34 147.167 86.7798 147.895 86.0654C148.623 85.351 149.143 84.5351 149.449 83.6102C149.754 82.6852 149.818 81.7039 149.63 80.6587L146.767 81.7378L146.775 81.7265Z" fill="black"/>
<path d="M158.749 75.8159L158.632 75.8309C158.447 75.4211 158.183 75.079 157.843 74.8083C157.504 74.5375 157.108 74.342 156.659 74.2217C156.207 74.1014 155.735 74.0751 155.245 74.139C154.261 74.2668 153.431 74.6203 152.764 75.203C152.096 75.7821 151.606 76.5265 151.297 77.4364C150.987 78.3463 150.859 79.3465 150.908 80.4444C150.931 81.2302 151.051 81.9295 151.27 82.5386C151.489 83.1477 151.779 83.6591 152.145 84.0727C152.507 84.4862 152.945 84.7833 153.45 84.9675C153.955 85.1517 154.506 85.2044 155.102 85.1254C155.788 85.0352 156.403 84.8058 156.938 84.4336C157.478 84.0614 157.855 83.5914 158.07 83.0236L158.205 83.0048L158.149 84.5314L160.928 84.1704L161.728 73.4961L159.024 73.8495L158.749 75.8197V75.8159ZM158.492 78.9818L158.42 79.9556C158.39 80.4331 158.285 80.8655 158.104 81.249C157.923 81.6325 157.674 81.9446 157.357 82.1852C157.04 82.4221 156.64 82.5762 156.161 82.6364C155.709 82.6965 155.309 82.6289 154.97 82.4371C154.627 82.2453 154.363 81.9408 154.166 81.5272C153.974 81.1136 153.865 80.5985 153.835 79.9819C153.801 79.3277 153.869 78.7411 154.038 78.2185C154.208 77.6959 154.476 77.2747 154.841 76.9514C155.207 76.628 155.656 76.4325 156.188 76.3611C156.704 76.2934 157.142 76.3611 157.5 76.5641C157.855 76.7672 158.122 77.0792 158.296 77.4966C158.469 77.9139 158.534 78.4102 158.492 78.9818Z" fill="black"/>
<path d="M170.454 73.4397C170.319 73.4284 170.164 73.4209 169.994 73.4209C169.406 73.4209 168.848 73.6051 168.32 73.9623C167.792 74.3232 167.377 74.8158 167.079 75.4437H166.962L167.23 73.6051L164.662 73.6126L162.497 84.1027L165.36 84.0952L166.344 79.3389C166.51 78.5945 166.751 77.9967 167.064 77.5492C167.377 77.098 167.743 76.7672 168.158 76.5566C168.576 76.3461 169.006 76.2408 169.451 76.2408C169.61 76.2408 169.757 76.2483 169.904 76.2671C170.047 76.2859 170.16 76.3235 170.24 76.3724L170.839 73.4961C170.722 73.4697 170.594 73.4509 170.458 73.4397H170.454Z" fill="black"/>
<path d="M179.079 74.8834C178.412 74.2969 177.518 73.9585 176.398 73.8645C175.304 73.7743 174.32 73.951 173.449 74.3947C172.578 74.8383 171.872 75.4926 171.337 76.3573C170.798 77.2221 170.462 78.2448 170.323 79.4217C170.228 80.3804 170.323 81.2414 170.598 81.9972C170.877 82.7529 171.348 83.3583 172.012 83.8132C172.676 84.2682 173.509 84.5351 174.512 84.6216C175.335 84.6893 176.1 84.6141 176.817 84.3922C177.529 84.1704 178.148 83.8207 178.665 83.3395C179.185 82.8582 179.551 82.2754 179.766 81.5874L177.013 81.3204C176.851 81.7002 176.575 81.9972 176.191 82.2153C175.806 82.4333 175.35 82.5198 174.829 82.4747C174.388 82.4371 174.018 82.3017 173.72 82.0686C173.426 81.8355 173.226 81.5159 173.121 81.1174C173.015 80.7188 173.015 80.2375 173.113 79.6848L180.132 80.2676C180.463 79.1434 180.535 78.1132 180.35 77.177C180.165 76.2408 179.739 75.4775 179.076 74.891L179.079 74.8834ZM177.725 78.2749L173.543 77.9252C173.683 77.5154 173.856 77.1657 174.067 76.88C174.312 76.5528 174.603 76.316 174.942 76.1693C175.282 76.0227 175.666 75.9663 176.096 76.0001C176.538 76.0377 176.896 76.1656 177.167 76.3837C177.439 76.6017 177.62 76.8875 177.714 77.2447C177.793 77.5455 177.793 77.8914 177.722 78.2749H177.725Z" fill="black"/>
<path d="M186.758 83.5688C186.358 83.7568 185.898 83.8132 185.381 83.7305C184.94 83.6628 184.582 83.5011 184.306 83.2492C184.027 82.9936 183.85 82.6627 183.775 82.2566C183.699 81.8505 183.729 81.373 183.869 80.8279L190.827 81.9032C191.234 80.8053 191.381 79.7826 191.264 78.8351C191.147 77.8876 190.778 77.098 190.156 76.4664C189.533 75.8347 188.666 75.4362 187.553 75.2632C186.467 75.094 185.475 75.203 184.574 75.5828C183.673 75.9663 182.926 76.5679 182.326 77.3913C181.727 78.2147 181.319 79.2111 181.097 80.3767C180.935 81.3279 180.965 82.1889 181.191 82.9635C181.414 83.738 181.84 84.3734 182.473 84.8735C183.103 85.3736 183.918 85.7007 184.91 85.8548C185.724 85.9789 186.494 85.9564 187.222 85.7872C187.949 85.618 188.59 85.3097 189.141 84.866C189.692 84.4223 190.099 83.8659 190.363 83.1966L187.636 82.7341C187.448 83.0988 187.154 83.3771 186.754 83.5688H186.758ZM185.019 78.1057C185.287 77.7974 185.592 77.5793 185.943 77.459C186.294 77.3349 186.682 77.3048 187.108 77.3725C187.546 77.4402 187.893 77.5943 188.149 77.8312C188.402 78.0681 188.564 78.3689 188.636 78.7261C188.696 79.0306 188.67 79.3765 188.572 79.7563L184.423 79.1133C184.589 78.7148 184.789 78.3764 185.023 78.1094L185.019 78.1057Z" fill="black"/>
<path d="M199.802 77.5003C199.225 77.3876 198.641 77.459 198.053 77.7109C197.464 77.9628 196.963 78.3689 196.548 78.9253L196.431 78.9028L197.049 77.1507L194.526 76.6656L190.378 86.5429L193.191 87.0843L195.077 82.6063C195.386 81.907 195.737 81.3693 196.129 80.9858C196.521 80.6023 196.944 80.3504 197.396 80.2225C197.845 80.0984 198.29 80.0759 198.728 80.1586C198.882 80.1887 199.026 80.2263 199.165 80.2714C199.301 80.3165 199.406 80.3729 199.471 80.4406L200.613 77.7335C200.504 77.6846 200.379 77.6432 200.247 77.6019C200.115 77.5643 199.965 77.5267 199.799 77.4966L199.802 77.5003Z" fill="black"/>
<path d="M211.765 87.3551C211.346 87.6521 210.875 87.8438 210.347 87.9303C209.819 88.0168 209.242 87.9942 208.616 87.8589C208.144 87.7461 207.733 87.5619 207.379 87.3137C207.024 87.0655 206.745 86.7497 206.538 86.3737C206.33 85.9977 206.214 85.5541 206.183 85.0465C206.153 84.5389 206.214 83.9711 206.364 83.3357C206.651 82.2491 207.066 81.343 207.605 80.6135C208.144 79.8841 208.789 79.3615 209.54 79.0494C210.29 78.7374 211.105 78.6772 211.987 78.8652C212.576 78.993 213.07 79.2036 213.473 79.5044C213.877 79.8052 214.175 80.1736 214.367 80.6173C214.559 81.0572 214.62 81.531 214.552 82.0385L217.505 82.674C217.708 81.6776 217.633 80.7527 217.282 79.8954C216.931 79.0381 216.354 78.3012 215.544 77.6808C214.737 77.0604 213.73 76.6205 212.53 76.3611C211.456 76.128 210.43 76.1017 209.449 76.2784C208.469 76.4551 207.575 76.816 206.768 77.3612C205.961 77.9064 205.259 78.6208 204.667 79.5006C204.075 80.3804 203.634 81.4031 203.34 82.5649C203.091 83.5237 203.016 84.4298 203.114 85.2758C203.212 86.1256 203.461 86.8926 203.868 87.5806C204.275 88.2687 204.837 88.8515 205.557 89.3252C206.278 89.799 207.149 90.1487 208.171 90.3667C209.31 90.6111 210.377 90.6337 211.376 90.4269C212.376 90.2239 213.258 89.814 214.02 89.2049C214.782 88.5958 215.366 87.8025 215.781 86.8249L212.791 86.182C212.523 86.6707 212.18 87.0655 211.761 87.3626L211.765 87.3551Z" fill="black"/>
<path d="M225.24 83.2079C224.693 82.8394 224.04 82.5837 223.282 82.4333C222.219 82.2228 221.238 82.2566 220.344 82.5311C219.451 82.8056 218.689 83.2868 218.059 83.9749C217.429 84.663 216.947 85.5089 216.615 86.5204C216.347 87.3325 216.226 88.0882 216.253 88.7913C216.279 89.4944 216.445 90.1261 216.747 90.6826C217.048 91.239 217.475 91.709 218.029 92.0812C218.58 92.4572 219.228 92.7167 219.971 92.8633C221.05 93.0776 222.026 93.0438 222.909 92.7656C223.791 92.4873 224.549 92.0023 225.187 91.3105C225.824 90.6186 226.303 89.7614 226.627 88.7349C226.906 87.9266 227.035 87.1746 227.005 86.479C226.974 85.7834 226.812 85.1555 226.51 84.5953C226.209 84.0388 225.783 83.5763 225.236 83.2079H225.24ZM224.04 87.3851C223.852 88.1333 223.592 88.7688 223.26 89.2952C222.928 89.8215 222.539 90.2051 222.091 90.4495C221.642 90.6938 221.14 90.7615 220.59 90.6525C220.295 90.5923 220.039 90.4908 219.82 90.3404C219.602 90.19 219.436 89.9983 219.315 89.7614C219.194 89.5245 219.126 89.2538 219.107 88.9417C219.089 88.6334 219.126 88.28 219.217 87.8852C219.405 87.137 219.666 86.5015 219.997 85.9752C220.329 85.4488 220.722 85.0653 221.178 84.8209C221.634 84.5802 222.128 84.5088 222.668 84.6178C222.977 84.678 223.233 84.787 223.444 84.9412C223.656 85.0953 223.818 85.2871 223.938 85.5165C224.059 85.7458 224.131 86.0203 224.157 86.3361C224.18 86.6519 224.142 87.0016 224.04 87.3776V87.3851Z" fill="black"/>
<path d="M237.549 84.9788L236.757 86.8023L236.64 86.7873C236.572 86.3436 236.41 85.9451 236.157 85.5917C235.905 85.2382 235.577 84.9487 235.173 84.7118C234.77 84.4787 234.325 84.3246 233.83 84.2569C232.846 84.1178 231.952 84.2381 231.153 84.6216C230.353 85.0014 229.682 85.5879 229.139 86.3812C228.596 87.1746 228.204 88.107 227.959 89.1786C227.77 89.9419 227.702 90.645 227.747 91.2917C227.796 91.9384 227.94 92.5061 228.177 93.0024C228.419 93.4987 228.758 93.901 229.196 94.2131C229.633 94.5252 230.15 94.7245 230.746 94.8072C231.432 94.9049 232.084 94.8448 232.703 94.6267C233.321 94.4124 233.812 94.059 234.17 93.5702L234.306 93.589L233.842 95.0441L236.617 95.4351L240.242 85.3585L237.541 84.9788H237.549ZM235.66 89.7877L235.331 90.7089C235.177 91.1601 234.958 91.5473 234.683 91.8707C234.407 92.194 234.083 92.4272 233.71 92.5738C233.34 92.7204 232.914 92.758 232.435 92.6904C231.983 92.6264 231.617 92.4572 231.338 92.179C231.059 91.9045 230.885 91.5398 230.81 91.0886C230.734 90.6374 230.764 90.1111 230.904 89.5132C231.047 88.8741 231.27 88.3289 231.571 87.8702C231.873 87.4115 232.247 87.0768 232.684 86.8625C233.125 86.6482 233.608 86.5768 234.14 86.6519C234.656 86.7234 235.06 86.9076 235.35 87.1971C235.641 87.4866 235.81 87.8589 235.867 88.3063C235.924 88.7537 235.852 89.25 235.656 89.7877H235.66Z" fill="black"/>
<path d="M243.33 89.9456C243.47 89.4794 243.658 89.0733 243.896 88.7199C244.134 88.3702 244.424 88.0957 244.763 87.904C245.103 87.7122 245.503 87.622 245.959 87.637C246.325 87.6483 246.641 87.731 246.902 87.8814C247.166 88.0318 247.369 88.2424 247.509 88.5056C247.652 88.7725 247.716 89.0846 247.705 89.4493L250.488 89.532C250.499 88.7237 250.326 88.0093 249.964 87.3926C249.602 86.776 249.096 86.2872 248.448 85.93C247.799 85.5729 247.022 85.3773 246.121 85.351C245.299 85.3247 244.552 85.4375 243.885 85.6857C243.217 85.9338 242.629 86.2872 242.127 86.7459C241.622 87.2084 241.218 87.7536 240.909 88.3815C240.604 89.0132 240.392 89.7012 240.276 90.457C240.144 91.3142 240.151 92.085 240.294 92.7768C240.438 93.4649 240.702 94.059 241.094 94.5628C241.482 95.0629 241.98 95.4539 242.58 95.7321C243.179 96.0104 243.858 96.1607 244.616 96.1833C245.533 96.2096 246.362 96.0743 247.113 95.7697C247.86 95.4652 248.486 95.0215 248.987 94.4387C249.489 93.8559 249.824 93.1603 249.994 92.3557L247.211 92.273C247.094 92.6339 246.924 92.9347 246.694 93.1754C246.464 93.416 246.196 93.6003 245.891 93.7281C245.585 93.8559 245.25 93.9161 244.884 93.9048C244.492 93.8935 244.156 93.792 243.873 93.6003C243.59 93.4085 243.376 93.134 243.232 92.7806C243.089 92.4272 243.032 91.9873 243.078 91.4646C243.108 90.9194 243.191 90.4119 243.33 89.9456Z" fill="black"/>
<path d="M261.825 86.1932C261.628 85.618 261.353 85.1743 260.999 84.8622C260.644 84.5464 260.244 84.3471 259.803 84.2607C259.362 84.1742 258.917 84.1704 258.468 84.2494C257.812 84.3659 257.201 84.6366 256.643 85.0615C256.081 85.4864 255.674 86.0203 255.417 86.6595L255.281 86.682L255.425 81.155L252.585 81.6626L252.189 96.2171L255.029 95.7095L255.191 89.6223C255.202 89.1034 255.3 88.6485 255.485 88.2574C255.666 87.8664 255.919 87.5468 256.239 87.2987C256.56 87.0505 256.918 86.8888 257.318 86.8174C257.755 86.7384 258.117 86.7798 258.408 86.9415C258.694 87.1031 258.906 87.3701 259.041 87.7423C259.173 88.1146 259.234 88.5958 259.219 89.1824L259.064 94.9914L261.904 94.4838L262.085 88.3928C262.111 87.5017 262.024 86.7685 261.828 86.1932H261.825Z" fill="black"/>
<path d="M159.993 104.831C159.42 104.361 158.718 104.09 157.896 104.023C157.07 103.955 156.135 104.124 155.087 104.527L150.365 106.339L152.741 120.702L155.577 119.611L154.77 114.746L157.625 113.648C158.699 113.234 159.567 112.674 160.234 111.967C160.898 111.257 161.332 110.46 161.528 109.576C161.724 108.689 161.649 107.756 161.298 106.775C161.008 105.952 160.574 105.301 160.001 104.831H159.993ZM158.356 110.091C158.017 110.719 157.413 111.197 156.546 111.531L154.366 112.366L153.62 107.854L155.645 107.076C156.29 106.828 156.863 106.779 157.353 106.933C157.847 107.087 158.205 107.455 158.432 108.038C158.718 108.779 158.692 109.463 158.353 110.091H158.356Z" fill="black"/>
<path d="M169.485 105.102C168.905 105.188 168.377 105.448 167.905 105.88C167.434 106.312 167.098 106.861 166.894 107.523L166.778 107.542V105.685L164.236 106.064L163.625 116.754L166.457 116.329L166.74 111.482C166.796 110.723 166.947 110.095 167.192 109.606C167.437 109.114 167.751 108.734 168.131 108.467C168.512 108.2 168.927 108.031 169.365 107.967C169.519 107.944 169.67 107.929 169.813 107.929C169.957 107.929 170.074 107.948 170.16 107.986L170.334 105.053C170.213 105.045 170.085 105.045 169.945 105.053C169.806 105.06 169.655 105.075 169.485 105.102Z" fill="black"/>
<path d="M180.271 106.459C179.868 105.967 179.362 105.594 178.759 105.335C178.152 105.075 177.461 104.948 176.692 104.94C175.606 104.933 174.652 105.151 173.826 105.587C173 106.027 172.34 106.64 171.854 107.433C171.363 108.226 171.05 109.147 170.915 110.204C170.805 111.05 170.832 111.817 170.99 112.501C171.148 113.186 171.431 113.776 171.831 114.265C172.235 114.757 172.74 115.133 173.355 115.396C173.969 115.66 174.652 115.795 175.41 115.799C176.507 115.806 177.465 115.588 178.276 115.152C179.091 114.712 179.743 114.095 180.237 113.295C180.731 112.498 181.04 111.561 181.165 110.493C181.289 109.648 181.27 108.884 181.108 108.204C180.95 107.527 180.667 106.94 180.267 106.448L180.271 106.459ZM178.37 109.666C178.325 110.437 178.193 111.11 177.967 111.689C177.741 112.268 177.431 112.719 177.035 113.043C176.643 113.366 176.164 113.528 175.602 113.524C175.301 113.524 175.029 113.468 174.788 113.362C174.546 113.257 174.343 113.099 174.184 112.889C174.022 112.678 173.901 112.426 173.826 112.125C173.751 111.825 173.72 111.475 173.735 111.069C173.781 110.302 173.913 109.625 174.139 109.046C174.365 108.467 174.678 108.016 175.078 107.692C175.478 107.369 175.953 107.207 176.504 107.211C176.817 107.211 177.092 107.271 177.326 107.38C177.56 107.493 177.759 107.651 177.922 107.854C178.084 108.057 178.208 108.313 178.291 108.617C178.374 108.926 178.401 109.272 178.374 109.663L178.37 109.666Z" fill="black"/>
<path d="M191.89 106.523L191.068 108.347L190.989 108.335C190.917 107.707 190.634 107.158 190.144 106.692C189.654 106.226 188.986 105.933 188.145 105.82C187.188 105.692 186.309 105.842 185.509 106.275C184.71 106.707 184.046 107.35 183.514 108.207C182.983 109.065 182.639 110.072 182.481 111.234C182.398 111.843 182.402 112.396 182.492 112.904C182.583 113.407 182.756 113.859 183.013 114.257C183.269 114.652 183.597 114.972 183.993 115.208C184.389 115.445 184.853 115.599 185.385 115.671C186.045 115.761 186.678 115.693 187.282 115.472C187.885 115.25 188.376 114.923 188.753 114.487L188.87 114.502L188.293 116.122C188.161 116.498 187.98 116.814 187.749 117.066C187.516 117.318 187.237 117.502 186.912 117.615C186.588 117.728 186.211 117.758 185.781 117.697C185.43 117.649 185.121 117.562 184.857 117.434C184.589 117.306 184.389 117.137 184.254 116.927C184.118 116.716 184.054 116.476 184.065 116.201L181.421 115.844C181.357 116.521 181.482 117.126 181.798 117.66C182.115 118.198 182.587 118.641 183.209 118.995C183.835 119.348 184.574 119.585 185.43 119.698C186.479 119.841 187.384 119.784 188.145 119.532C188.903 119.28 189.537 118.867 190.046 118.299C190.552 117.728 190.948 117.043 191.227 116.239L194.553 106.88L191.89 106.519V106.523ZM190.125 110.941L189.805 111.843C189.654 112.272 189.447 112.637 189.179 112.941C188.911 113.246 188.602 113.475 188.244 113.625C187.885 113.776 187.482 113.817 187.029 113.757C186.652 113.708 186.335 113.58 186.071 113.381C185.807 113.182 185.622 112.911 185.509 112.565C185.396 112.223 185.374 111.817 185.438 111.351C185.536 110.64 185.732 110.027 186.034 109.508C186.335 108.99 186.712 108.599 187.165 108.328C187.617 108.061 188.123 107.963 188.677 108.038C189.118 108.098 189.48 108.256 189.76 108.508C190.042 108.764 190.216 109.095 190.288 109.508C190.355 109.918 190.303 110.396 190.125 110.937V110.941Z" fill="black"/>
<path d="M201.526 111.054C201.662 111.099 201.763 111.159 201.831 111.223L202.982 108.52C202.872 108.471 202.752 108.429 202.616 108.388C202.484 108.35 202.333 108.313 202.167 108.279C201.59 108.166 201.005 108.234 200.417 108.486C199.829 108.738 199.327 109.14 198.909 109.696L198.792 109.674L199.418 107.922L196.895 107.429L192.712 117.291L195.522 117.84L197.423 113.37C197.732 112.674 198.087 112.133 198.482 111.753C198.878 111.373 199.301 111.118 199.75 110.994C200.202 110.869 200.643 110.851 201.081 110.933C201.236 110.963 201.379 111.001 201.518 111.05L201.526 111.054Z" fill="black"/>
<path d="M211.324 110.509L210.385 112.261L210.271 112.234C210.237 111.787 210.109 111.377 209.887 111.005C209.66 110.633 209.359 110.317 208.978 110.05C208.597 109.783 208.163 109.595 207.677 109.486C206.708 109.268 205.806 109.317 204.98 109.632C204.151 109.948 203.434 110.478 202.831 111.223C202.227 111.967 201.76 112.866 201.428 113.915C201.179 114.659 201.051 115.359 201.047 116.006C201.043 116.652 201.137 117.231 201.337 117.746C201.537 118.258 201.843 118.686 202.254 119.036C202.665 119.382 203.163 119.623 203.751 119.754C204.426 119.905 205.082 119.901 205.716 119.735C206.349 119.57 206.866 119.258 207.266 118.799L207.401 118.829L206.821 120.243L209.559 120.856L213.99 111.106L211.331 110.509H211.324ZM209.05 115.148L208.646 116.039C208.454 116.475 208.205 116.848 207.903 117.145C207.601 117.446 207.258 117.652 206.877 117.765C206.496 117.882 206.07 117.885 205.599 117.78C205.154 117.679 204.803 117.479 204.547 117.182C204.294 116.885 204.147 116.509 204.109 116.051C204.071 115.596 204.147 115.073 204.332 114.487C204.528 113.862 204.792 113.336 205.131 112.904C205.471 112.471 205.867 112.167 206.323 111.99C206.779 111.813 207.269 111.779 207.79 111.9C208.299 112.012 208.687 112.227 208.951 112.543C209.215 112.855 209.359 113.238 209.378 113.689C209.396 114.141 209.287 114.629 209.05 115.148Z" fill="black"/>
<path d="M230.73 116.611C230.681 115.915 230.448 115.348 230.018 114.904C229.592 114.46 228.999 114.159 228.245 114.001C227.517 113.847 226.786 113.885 226.058 114.114C225.33 114.34 224.704 114.772 224.18 115.411L224.025 115.378C224.063 114.693 223.867 114.103 223.437 113.607C223.007 113.11 222.415 112.783 221.661 112.625C221.02 112.49 220.371 112.524 219.707 112.727C219.043 112.926 218.489 113.268 218.04 113.746L217.904 113.719L218.474 112.159L215.766 111.591L211.437 121.393L214.258 121.984L216.739 116.389C216.962 115.904 217.229 115.513 217.546 115.22C217.863 114.926 218.202 114.727 218.572 114.626C218.942 114.524 219.311 114.509 219.681 114.588C220.114 114.678 220.427 114.859 220.62 115.126C220.812 115.393 220.891 115.731 220.857 116.145C220.823 116.558 220.691 117.024 220.461 117.551L218.153 122.803L220.974 123.394L223.433 117.814C223.637 117.352 223.893 116.972 224.195 116.675C224.497 116.378 224.832 116.167 225.198 116.047C225.564 115.923 225.945 115.904 226.345 115.987C226.805 116.084 227.129 116.269 227.321 116.539C227.51 116.814 227.589 117.152 227.559 117.558C227.525 117.964 227.397 118.431 227.163 118.953L224.836 124.202L227.657 124.792L230.184 119.089C230.599 118.137 230.783 117.314 230.734 116.615L230.73 116.611Z" fill="black"/>
</svg>
